<svg width="521" height="386" viewBox="0 0 521 386" fill="none" xmlns="http://www.w3.org/2000/svg">
<path d="M521 338.808H0V339.066H521V338.808Z" fill="#E6E6E6"/>
<path d="M130.062 354.465H95.5515V354.724H130.062V354.465Z" fill="#E6E6E6"/>
<path d="M84.6312 354.465H64.6352V354.724H84.6312V354.465Z" fill="#E6E6E6"/>
<path d="M219.392 358.273H199.396V358.531H219.392V358.273Z" fill="#E6E6E6"/>
<path d="M323.656 364.048H278.652V364.306H323.656V364.048Z" fill="#E6E6E6"/>
<path d="M269.378 364.048H262.782V364.306H269.378V364.048Z" fill="#E6E6E6"/>
<path d="M472.39 358.273H374.776V358.531H472.39V358.273Z" fill="#E6E6E6"/>
<path d="M246.955 292.654H45.7548C44.1786 292.651 42.6679 292.027 41.5543 290.919C40.4408 289.811 39.8154 288.31 39.8154 286.745V5.85721C39.8291 4.30083 40.4606 2.81268 41.5726 1.716C42.6847 0.61931 44.1876 0.00266616 45.7548 0H246.955C248.533 0 250.046 0.622549 251.162 1.73069C252.278 2.83884 252.904 4.3418 252.904 5.90895V286.745C252.904 288.312 252.278 289.815 251.162 290.923C250.046 292.031 248.533 292.654 246.955 292.654ZM45.7548 0.206969C44.2477 0.209711 42.8032 0.80621 41.7385 1.86554C40.6738 2.92487 40.0759 4.36047 40.0759 5.85721V286.745C40.0759 288.241 40.6738 289.677 41.7385 290.736C42.8032 291.796 44.2477 292.392 45.7548 292.395H246.955C248.463 292.392 249.908 291.796 250.974 290.737C252.041 289.678 252.641 288.242 252.644 286.745V5.85721C252.641 4.35951 252.041 2.92394 250.974 1.86491C249.908 0.805874 248.463 0.209705 246.955 0.206969H45.7548Z" fill="#E6E6E6"/>
<path d="M472.349 292.654H271.138C269.561 292.651 268.05 292.027 266.934 290.92C265.819 289.812 265.191 288.311 265.189 286.745V5.85721C265.205 4.29989 265.839 2.81175 266.953 1.71535C268.066 0.618949 269.57 0.00263708 271.138 0H472.349C473.914 0.00538584 475.414 0.623233 476.524 1.71963C477.634 2.81602 478.264 4.30262 478.278 5.85721V286.745C478.278 288.308 477.654 289.808 476.542 290.916C475.431 292.023 473.923 292.648 472.349 292.654ZM271.138 0.206969C269.63 0.209705 268.185 0.805874 267.118 1.86491C266.052 2.92394 265.452 4.35951 265.449 5.85721V286.745C265.452 288.242 266.052 289.678 267.118 290.737C268.185 291.796 269.63 292.392 271.138 292.395H472.349C473.857 292.392 475.302 291.796 476.369 290.737C477.435 289.678 478.035 288.242 478.038 286.745V5.85721C478.035 4.35951 477.435 2.92394 476.369 1.86491C475.302 0.805874 473.857 0.209705 472.349 0.206969H271.138Z" fill="#E6E6E6"/>
<path d="M278.631 250.411H255.717V340.681H278.631V250.411Z" fill="#E0E0E0"/>
<path d="M274.276 340.681H278.631V328.387H269.712L274.276 340.681Z" fill="#FAFAFA"/>
<path d="M178.223 250.411H155.309V340.681H178.223V250.411Z" fill="#E0E0E0"/>
<path d="M278.63 250.411H174.43V333.137H278.63V250.411Z" fill="#FAFAFA"/>
<path d="M274.848 254.478V276.365H178.182V254.478H274.817H274.848ZM275.224 254.075H177.807V276.758H275.255V254.075H275.224Z" fill="#E0E0E0"/>
<path d="M178.775 340.681H174.43V328.387H183.339L178.775 340.681Z" fill="#FAFAFA"/>
<path d="M224.228 265.417C224.228 265.869 224.363 266.311 224.616 266.687C224.869 267.063 225.229 267.356 225.65 267.53C226.07 267.703 226.533 267.748 226.98 267.66C227.427 267.571 227.837 267.354 228.159 267.034C228.481 266.714 228.701 266.306 228.789 265.863C228.878 265.419 228.833 264.959 228.658 264.541C228.484 264.124 228.189 263.766 227.81 263.515C227.432 263.264 226.986 263.13 226.531 263.13C225.92 263.13 225.334 263.371 224.903 263.8C224.471 264.228 224.228 264.81 224.228 265.417Z" fill="#E6E6E6"/>
<path d="M274.848 280.825V302.712H178.182V280.825H274.817H274.848ZM275.224 280.432H177.807V303.116H275.255V280.442L275.224 280.432Z" fill="#E0E0E0"/>
<path d="M224.228 291.826C224.228 292.278 224.363 292.72 224.616 293.096C224.869 293.473 225.229 293.766 225.65 293.939C226.07 294.112 226.533 294.157 226.98 294.069C227.427 293.981 227.837 293.763 228.159 293.443C228.481 293.123 228.701 292.716 228.789 292.272C228.878 291.828 228.833 291.369 228.658 290.951C228.484 290.533 228.189 290.176 227.81 289.924C227.432 289.673 226.986 289.539 226.531 289.539C225.92 289.539 225.334 289.78 224.903 290.209C224.471 290.638 224.228 291.219 224.228 291.826Z" fill="#E6E6E6"/>
<path d="M274.848 307.183V329.08H178.182V307.183H274.817H274.848ZM275.224 306.779H177.807V329.473H275.255V306.779H275.224Z" fill="#E0E0E0"/>
<path d="M224.228 318.132C224.23 318.583 224.367 319.025 224.621 319.399C224.876 319.774 225.236 320.066 225.657 320.237C226.078 320.409 226.541 320.452 226.987 320.363C227.433 320.274 227.842 320.055 228.163 319.735C228.484 319.414 228.702 319.007 228.79 318.564C228.878 318.12 228.832 317.661 228.657 317.244C228.483 316.826 228.188 316.47 227.809 316.219C227.431 315.968 226.986 315.834 226.531 315.834C226.228 315.834 225.927 315.894 225.647 316.009C225.367 316.125 225.113 316.294 224.899 316.508C224.685 316.721 224.516 316.975 224.4 317.253C224.285 317.532 224.227 317.83 224.228 318.132Z" fill="#E6E6E6"/>
<path d="M164.229 197.986H141.316V340.691H164.229V197.986Z" fill="#E0E0E0"/>
<path d="M159.873 340.681H164.229V328.387H155.32L159.873 340.681Z" fill="#FAFAFA"/>
<path d="M78.5984 197.986H55.6848V340.691H78.5984V197.986Z" fill="#E0E0E0"/>
<path d="M164.229 197.986H74.7939V333.147H164.229V197.986Z" fill="#FAFAFA"/>
<path d="M160.374 201.794V232.395H78.6497V201.794H160.374ZM160.853 201.329H78.1495V232.84H160.832V201.339L160.853 201.329Z" fill="#E0E0E0"/>
<path d="M160.375 236.131V317.293H121.446V236.131H160.375ZM160.854 235.655H120.977V317.769H160.854V235.655Z" fill="#E0E0E0"/>
<path d="M117.579 236.131V317.293H78.6497V236.131H117.579ZM118.048 235.655H78.1495V317.769H118.027V235.655H118.048Z" fill="#E0E0E0"/>
<path d="M79.1495 340.681H74.7939V328.387H83.7135L79.1495 340.681Z" fill="#FAFAFA"/>
<path d="M117.204 217.11C117.202 217.565 117.336 218.01 117.589 218.389C117.842 218.768 118.202 219.064 118.625 219.24C119.047 219.415 119.513 219.462 119.962 219.375C120.412 219.287 120.825 219.069 121.149 218.749C121.474 218.428 121.695 218.018 121.785 217.572C121.875 217.126 121.83 216.664 121.655 216.244C121.481 215.823 121.184 215.464 120.803 215.211C120.423 214.958 119.975 214.823 119.517 214.823C118.906 214.823 118.319 215.064 117.885 215.492C117.452 215.921 117.207 216.502 117.204 217.11Z" fill="#E6E6E6"/>
<path d="M125.457 274.782C125.457 275.237 125.593 275.681 125.847 276.059C126.102 276.437 126.464 276.732 126.887 276.905C127.31 277.079 127.776 277.124 128.225 277.034C128.674 276.945 129.086 276.725 129.409 276.403C129.732 276.08 129.952 275.67 130.04 275.224C130.128 274.777 130.081 274.315 129.904 273.896C129.727 273.476 129.429 273.118 129.047 272.867C128.666 272.616 128.217 272.483 127.759 272.485C127.456 272.485 127.156 272.544 126.876 272.66C126.596 272.775 126.341 272.945 126.127 273.158C125.913 273.372 125.744 273.625 125.629 273.904C125.514 274.182 125.455 274.481 125.457 274.782Z" fill="#E6E6E6"/>
<path d="M108.962 274.782C108.964 275.234 109.101 275.675 109.355 276.05C109.609 276.424 109.97 276.716 110.391 276.888C110.812 277.059 111.274 277.103 111.72 277.013C112.166 276.924 112.576 276.705 112.897 276.385C113.218 276.065 113.436 275.657 113.524 275.214C113.612 274.771 113.566 274.311 113.391 273.894C113.217 273.477 112.921 273.12 112.543 272.869C112.165 272.618 111.72 272.485 111.265 272.485C110.961 272.485 110.661 272.544 110.381 272.66C110.101 272.775 109.847 272.945 109.633 273.158C109.419 273.372 109.249 273.625 109.134 273.904C109.019 274.182 108.961 274.481 108.962 274.782Z" fill="#E6E6E6"/>
<path d="M106.357 158.196H96.6973C97.5875 162.85 98.148 167.56 98.3749 172.291C98.3749 177.465 91.0184 197.986 101.501 197.986C111.983 197.986 104.627 177.517 104.627 172.291C104.871 167.558 105.449 162.849 106.357 158.196Z" fill="#E0E0E0"/>
<path d="M69.6061 179.183V185.392C69.6171 188.721 70.9533 191.91 73.3233 194.263C75.6932 196.617 78.9044 197.944 82.256 197.955H88.508C91.8595 197.944 95.0707 196.617 97.4406 194.263C99.8106 191.91 101.147 188.721 101.158 185.392V179.183H69.6061Z" fill="#F5F5F5"/>
<path d="M203.888 237.248C203.888 244.492 212.047 250.411 222.019 250.411H231.022C240.994 250.411 249.152 244.492 249.152 237.248H203.888Z" fill="#E0E0E0"/>
<path d="M442.443 226.631C436.983 231.06 429.439 239.163 422.541 250.567C417.936 258.162 415.164 266.089 413.945 276.624C413.945 264.723 414.018 251.943 414.059 239.877C415.445 236.772 418.613 229.611 420.885 223.961C428.46 205.096 431.305 200.449 438.109 184.181C447.205 162.45 456.521 136.723 453.853 138.783C448.414 142.974 427.574 181.729 425.323 187.276C419.188 202.078 415.396 217.734 414.08 233.688C414.08 222.305 414.164 211.957 414.205 203.926C414.351 177.734 414.799 169.28 415.018 166.672C415.862 165.347 416.852 163.805 417.435 162.977C422.333 155.94 424.219 149.959 428.825 139.466C435.368 124.616 440.995 98.2376 439.349 99.5622C432.492 105.109 427.095 117.01 419.988 132.191C412.882 147.372 414.914 156.096 413.507 169.052C413.215 171.598 412.986 181.201 412.819 194.499C410.986 180.321 407.526 170.987 401.222 162.501C393.469 152.06 385.967 145.013 380.465 141.328C374.964 137.644 389.968 163.288 397.137 174.443C403.525 184.419 409.412 193.205 412.767 201.867C412.59 219.904 412.507 242.733 412.507 263.957C410.86 254.292 408.172 243.871 404.588 235.81C400.274 226.124 393.647 211.263 388.364 206.223C387.103 205.013 393.886 233.916 398.242 241.594C402.597 249.273 405.796 256.527 408.537 260.884C409.172 261.919 411.298 265.82 412.507 268.076C412.507 294.02 412.653 316.91 412.882 324.703H414.007C413.934 322.695 413.914 309.49 413.945 292.022C416.664 282.543 422.875 271.719 428.001 261.846C433.586 251.156 447.904 222.233 442.443 226.631Z" fill="#E0E0E0"/>
<path d="M429.763 340.681H397.106L394.637 308.89H432.232L429.763 340.681Z" fill="#F0F0F0"/>
<path d="M434.659 312.595H392.198L390.989 301.864H435.878L434.659 312.595Z" fill="#F5F5F5"/>
<path d="M129.479 21.2144H71.0752V84.909H129.479V21.2144Z" fill="#E0E0E0"/>
<path d="M135.804 21.2144H75.472V84.909H135.804V21.2144Z" fill="#F5F5F5"/>
<path d="M130.75 79.89V26.2334L80.5256 26.2334V79.89H130.75Z" fill="white"/>
<path d="M118.569 66.8716V39.231H92.6963V66.8716H118.569Z" fill="#F5F5F5"/>
<path d="M427.271 28.634H373.014V87.8064H427.271V28.634Z" fill="#E0E0E0"/>
<path d="M433.149 28.634H377.11V87.8064H433.149V28.634Z" fill="#F5F5F5"/>
<path d="M428.46 83.1391V33.301H381.809V83.1391H428.46Z" fill="white"/>
<path d="M405.13 72.6769C413.169 72.6769 419.686 66.2044 419.686 58.2202C419.686 50.2359 413.169 43.7634 405.13 43.7634C397.09 43.7634 390.573 50.2359 390.573 58.2202C390.573 66.2044 397.09 72.6769 405.13 72.6769Z" fill="#F5F5F5"/>
<path d="M190.154 59.1931H146.827V106.444H190.154V59.1931Z" fill="#E0E0E0"/>
<path d="M194.844 59.1931H150.09V106.444H194.844V59.1931Z" fill="#F5F5F5"/>
<path d="M191.092 102.719V62.9185H153.841V102.719H191.092Z" fill="white"/>
<path d="M172.472 72.7493L162.281 90.2795H182.663L172.472 72.7493Z" fill="#F5F5F5"/>
<path d="M260.5 385.541C372.08 385.541 462.533 380.296 462.533 373.827C462.533 367.357 372.08 362.112 260.5 362.112C148.92 362.112 58.4664 367.357 58.4664 373.827C58.4664 380.296 148.92 385.541 260.5 385.541Z" fill="#F5F5F5"/>
<path d="M363.917 112.208L353.58 108.069C353.58 108.069 339.941 132.77 336.033 134.022C330.719 135.72 319.715 140.438 313.193 141.266C312.307 142.301 310.858 145.52 310.994 146.689C319.757 149.597 339.013 145.737 343.14 142.694C352.528 135.792 363.917 112.208 363.917 112.208Z" fill="#C78E6E"/>
<path d="M367.096 106.589C369.024 113.657 358.583 127.876 358.583 127.876L344.901 120.259C344.901 120.259 347.465 114.412 350.591 108.462C355.603 98.8481 364.897 98.5273 367.096 106.589Z" fill="#FDBF21"/>
<path opacity="0.2" d="M367.096 106.589C369.024 113.657 358.583 127.876 358.583 127.876L344.901 120.259C344.901 120.259 347.465 114.412 350.591 108.462C355.603 98.8481 364.897 98.5273 367.096 106.589Z" fill="black"/>
<path opacity="0.2" d="M350.33 123.302L355.718 126.303L356.666 109.88C353.529 112.27 351.32 119.473 350.33 123.302Z" fill="black"/>
<path d="M358.093 101.27C358.093 101.27 347.444 124.802 353.654 168.617H395.615C396.282 162.222 394.073 131.011 402.065 100.876C397.462 99.983 392.805 99.3919 388.123 99.1069C382.185 98.7652 376.232 98.7652 370.295 99.1069C366.178 99.522 362.099 100.245 358.093 101.27Z" fill="#FDBF21"/>
<path opacity="0.2" d="M358.093 101.27C358.093 101.27 347.444 124.802 353.654 168.617H395.615C396.282 162.222 394.073 131.011 402.065 100.876C397.462 99.983 392.805 99.3919 388.123 99.1069C382.185 98.7652 376.232 98.7652 370.295 99.1069C366.178 99.522 362.099 100.245 358.093 101.27Z" fill="black"/>
<g style="mix-blend-mode:multiply">
<path d="M348.361 374.758C348.299 375.876 364.21 376.776 383.893 376.776C403.577 376.776 419.603 375.876 419.665 374.758C419.728 373.64 403.827 372.75 384.133 372.75C364.439 372.75 348.434 373.651 348.361 374.758Z" fill="#E8ECF1"/>
</g>
<path d="M376.371 345.392L368.929 348.253L375.339 364.701L382.782 361.84L376.371 345.392Z" fill="#C78E6E"/>
<path d="M409.557 366.8H401.711L398.835 348.763H406.682L409.557 366.8Z" fill="#C78E6E"/>
<path d="M401.169 365.9H409.984C410.137 365.9 410.285 365.955 410.402 366.053C410.518 366.152 410.595 366.288 410.62 366.438L411.756 373.361C411.78 373.535 411.766 373.712 411.715 373.879C411.664 374.047 411.577 374.202 411.46 374.334C411.344 374.465 411.2 374.57 411.039 374.642C410.878 374.713 410.703 374.749 410.526 374.748C407.452 374.696 405.973 374.51 402.097 374.51C399.71 374.51 394.803 374.758 391.489 374.758C388.175 374.758 387.957 371.529 389.322 371.229C395.449 369.915 397.824 368.125 399.867 366.386C400.227 366.072 400.69 365.899 401.169 365.9Z" fill="black"/>
<path d="M375.119 363.23L383.455 360.808C383.604 360.767 383.762 360.777 383.904 360.837C384.047 360.897 384.164 361.004 384.236 361.14L387.362 367.349C387.435 367.506 387.472 367.678 387.471 367.851C387.47 368.024 387.431 368.195 387.357 368.352C387.282 368.508 387.174 368.647 387.04 368.758C386.906 368.869 386.75 368.949 386.581 368.994C383.549 369.822 381.517 370.329 377.724 371.426C375.109 372.181 372.441 373.413 369.857 374.23C368.065 374.8 363.855 374.82 361.677 374.82C358.457 374.82 357.738 371.447 359.124 371.291C362.615 370.909 363.084 371.084 365.012 370.122C368.166 368.753 371.024 366.792 373.431 364.348C373.885 363.834 374.467 363.448 375.119 363.23Z" fill="black"/>
<path d="M314.507 141.225L305.879 137.634L302.326 147.134C305.862 147.669 309.459 147.669 312.996 147.134L314.507 141.225Z" fill="#C78E6E"/>
<path d="M299.459 137.386L299.23 143.698L302.325 147.113L305.878 137.613L299.459 137.386Z" fill="#C78E6E"/>
<path d="M377.392 346.789L369.926 349.651L373.232 358.156L380.698 355.294L377.392 346.789Z" fill="#CF6F64"/>
<path d="M406.682 348.763H398.835L400.325 358.066H408.172L406.682 348.763Z" fill="#CF6F64"/>
<path opacity="0.2" d="M352.321 156.768C352.477 158.641 352.654 160.556 352.883 162.522L384.081 152.463C388.953 151.029 393.187 147.989 396.085 143.843C396.21 141.08 396.366 138.172 396.606 135.14C396.71 133.671 396.835 132.16 396.971 130.628C397.106 129.097 397.294 127.399 397.492 125.764L352.321 156.768Z" fill="black"/>
<path d="M362.512 122.826L361.47 122.701C362.085 117.527 365.971 113.45 370.067 113.553V114.588C366.482 114.516 363.064 118.19 362.512 122.826Z" fill="white"/>
<path d="M368.066 132.377H367.889V131.342C371.473 131.477 374.839 127.762 375.391 123.136L376.433 123.26C375.881 128.321 372.119 132.377 368.066 132.377Z" fill="white"/>
<path d="M387.541 79.1653C386.071 84.8673 384.342 95.3088 388.124 99.1067C388.124 99.1067 385.477 104.891 374.818 104.891C365.075 104.891 370.295 99.1067 370.295 99.1067C376.777 97.5958 376.891 92.8977 376.037 88.4478L387.541 79.1653Z" fill="#C78E6E"/>
<path d="M382.851 82.9531L376.047 88.4481C376.258 89.4707 376.38 90.5094 376.411 91.5527C378.402 93.5189 382.392 88.5413 382.799 85.9956C383.005 84.9933 383.023 83.9618 382.851 82.9531Z" fill="#CF6F64"/>
<path d="M364.345 79.0931C364.819 79.9081 365.456 80.6173 366.218 81.1765C366.98 81.7356 367.85 82.1325 368.774 82.3426C371.275 82.891 372.525 80.604 371.837 78.3067C371.223 76.237 369.17 73.4533 366.627 73.9293C366.083 74.0407 365.573 74.2801 365.141 74.6274C364.708 74.9747 364.366 75.4199 364.143 75.9255C363.919 76.4312 363.821 76.9827 363.856 77.5338C363.892 78.0849 364.059 78.6196 364.345 79.0931Z" fill="#CF6F64"/>
<path d="M368.482 60.8487C364.585 62.6183 363.209 77.9961 368.107 80.2727C373.004 82.5494 375.859 57.4855 368.482 60.8487Z" fill="black"/>
<path d="M388.729 70.5868C387.791 78.3067 387.687 82.8497 383.519 86.8028C382.227 88.1146 380.596 89.0464 378.804 89.4954C377.013 89.9444 375.132 89.893 373.368 89.347C371.605 88.801 370.027 87.7815 368.81 86.4012C367.593 85.0209 366.784 83.3334 366.472 81.5251C365.211 74.5916 366.951 63.1359 374.745 60.0624C376.383 59.3451 378.184 59.0758 379.961 59.2824C381.739 59.4891 383.429 60.1643 384.855 61.2379C386.282 62.3115 387.393 63.7445 388.074 65.3883C388.755 67.0322 388.981 68.827 388.729 70.5868Z" fill="#C78E6E"/>
<path d="M375.922 64.8432C381.695 63.3841 385.936 62.3906 384.415 67.1613C382.404 73.5359 379.986 79.7036 383.227 79.983C385.207 80.1589 393.959 76.4749 392.844 72.7391C391.875 69.4897 395.97 68.5997 396.7 66.9543C399.399 60.9936 391.677 61.7801 393.053 58.1581C394.428 54.5362 386.801 48.6997 382.633 51.6076C375.849 56.3058 364.21 56.2333 370.327 48.503C374.714 42.9873 366.888 44.1153 366.888 44.1153C366.888 44.1153 371.619 46.899 363.658 51.204C355.239 55.7987 362.96 68.1444 375.922 64.8432Z" fill="black"/>
<path d="M391.792 79.0931C390.652 80.7308 388.94 81.889 386.988 82.3426C384.414 82.891 383.424 80.604 384.393 78.3067C385.258 76.237 387.634 73.4533 390.093 73.9293C392.552 74.4053 393.115 77.0648 391.792 79.0931Z" fill="#C78E6E"/>
<path d="M353.654 168.617C353.654 168.617 346.61 231.225 346.058 254.985C345.495 279.697 369.93 356.803 369.93 356.803L382.434 351.629C382.434 351.629 367.846 281.177 369.93 256.91C372.139 230.449 381.267 168.659 381.267 168.659L353.654 168.617Z" fill="#FDBF21"/>
<path opacity="0.2" d="M371.16 185.806C365.543 197.376 369.326 220.256 372.368 233.812C373.525 224.24 374.9 213.85 376.203 204.237C376.078 189.459 374.921 178.045 371.16 185.806Z" fill="black"/>
<path d="M381.882 347.531C381.944 347.531 383.361 351.484 383.361 351.484L368.94 357.507L366.668 353.306L381.882 347.531Z" fill="#FDBF21"/>
<path d="M368.544 168.617C368.544 168.617 373.932 228.162 377.495 250.463C381.413 274.896 396.772 356.265 396.772 356.265H411.141C411.141 356.265 402.534 276.872 400.909 252.678C399.137 226.434 395.616 168.617 395.616 168.617H368.544Z" fill="#FDBF21"/>
<path d="M411.36 352.55C411.423 352.55 411.84 356.534 411.84 356.534H396.043L394.918 351.96L411.36 352.55Z" fill="#FDBF21"/>
<path opacity="0.2" d="M405.859 347.832C405.827 347.832 405.795 347.821 405.77 347.8C405.745 347.779 405.729 347.75 405.724 347.718C405.641 346.993 397.878 275.279 396.419 253.547C394.835 229.973 391.647 177.683 391.615 177.155C391.614 177.138 391.616 177.121 391.622 177.104C391.627 177.088 391.636 177.073 391.648 177.06C391.66 177.048 391.674 177.038 391.69 177.031C391.706 177.024 391.723 177.02 391.74 177.021C391.775 177.02 391.808 177.033 391.833 177.056C391.858 177.079 391.873 177.111 391.876 177.145C391.876 177.672 395.096 229.922 396.679 253.537C398.138 275.269 405.901 346.931 405.974 347.708C405.977 347.725 405.976 347.742 405.972 347.759C405.968 347.776 405.96 347.792 405.949 347.805C405.938 347.819 405.925 347.83 405.909 347.838C405.894 347.846 405.877 347.851 405.859 347.852V347.832Z" fill="black"/>
<path d="M376.808 72.7392C376.808 73.3704 376.412 73.8775 375.996 73.8775C375.579 73.8775 375.277 73.3704 375.318 72.7392C375.36 72.1079 375.714 71.6008 376.131 71.6008C376.548 71.6008 376.85 72.1182 376.808 72.7392Z" fill="black"/>
<path d="M369.66 72.7392C369.66 73.3704 369.253 73.8775 368.847 73.8775C368.441 73.8775 368.128 73.3704 368.159 72.7392C368.191 72.1079 368.566 71.6008 368.982 71.6008C369.399 71.6008 369.701 72.1182 369.66 72.7392Z" fill="black"/>
<path d="M371.91 73.0598C371.041 74.9874 369.92 76.7931 368.576 78.4306C369.618 79.4655 371.567 78.9895 371.567 78.9895L371.91 73.0598Z" fill="#DF5753"/>
<path d="M372.099 81.6286C372.074 81.6286 372.05 81.6237 372.028 81.6143C372.006 81.6048 371.986 81.5909 371.969 81.5734C371.953 81.556 371.94 81.5353 371.932 81.5128C371.923 81.4902 371.92 81.4662 371.921 81.4423C371.924 81.3919 371.946 81.3446 371.983 81.3099C372.02 81.2752 372.069 81.2559 372.119 81.256C372.916 81.2615 373.704 81.0896 374.426 80.7529C375.147 80.4162 375.783 79.9234 376.287 79.3105C376.323 79.2792 376.37 79.262 376.418 79.262C376.466 79.262 376.512 79.2792 376.548 79.3105C376.582 79.3452 376.6 79.3916 376.6 79.4399C376.6 79.4881 376.582 79.5345 376.548 79.5692C376.008 80.2206 375.328 80.7436 374.558 81.1C373.788 81.4563 372.948 81.6369 372.099 81.6286Z" fill="black"/>
<path d="M378.079 70.8351C378.029 70.8606 377.973 70.8738 377.917 70.8738C377.861 70.8738 377.806 70.8606 377.756 70.8351C377.366 70.5849 376.922 70.4292 376.461 70.3806C375.999 70.3321 375.533 70.3921 375.099 70.5557C375.056 70.5767 375.01 70.5891 374.963 70.5921C374.916 70.5952 374.868 70.5888 374.824 70.5733C374.779 70.5579 374.738 70.5337 374.703 70.5023C374.668 70.4708 374.639 70.4327 374.619 70.3901C374.581 70.2981 374.58 70.1946 374.617 70.1018C374.654 70.009 374.726 69.9343 374.817 69.8934C375.362 69.6725 375.952 69.5853 376.538 69.6393C377.124 69.6934 377.688 69.887 378.183 70.2039C378.223 70.2308 378.257 70.2654 378.283 70.3056C378.31 70.3458 378.328 70.3908 378.337 70.4379C378.345 70.4851 378.345 70.5335 378.334 70.5804C378.324 70.6273 378.304 70.6716 378.277 70.711C378.224 70.7703 378.155 70.8134 378.079 70.8351Z" fill="black"/>
<path d="M366.898 68.7655C366.843 68.7522 366.792 68.7235 366.752 68.6828C366.718 68.649 366.69 68.6088 366.671 68.5644C366.652 68.5199 366.643 68.4722 366.643 68.424C366.643 68.3759 366.652 68.3282 366.671 68.2837C366.69 68.2393 366.718 68.1991 366.752 68.1653C367.152 67.7205 367.649 67.3732 368.206 67.1507C368.762 66.9281 369.363 66.8362 369.962 66.8821C370.01 66.8895 370.055 66.9065 370.097 66.9322C370.138 66.9579 370.173 66.9917 370.2 67.0314C370.228 67.0712 370.246 67.1161 370.256 67.1634C370.265 67.2107 370.264 67.2594 370.253 67.3064C370.231 67.4022 370.174 67.4867 370.094 67.5438C370.013 67.601 369.914 67.627 369.816 67.6169C369.342 67.5872 368.868 67.665 368.43 67.8443C367.991 68.0236 367.599 68.2997 367.284 68.6517C367.236 68.7041 367.175 68.7424 367.107 68.7625C367.039 68.7826 366.967 68.7836 366.898 68.7655Z" fill="black"/>
<path d="M406.098 111.059L395.262 108.193C395.262 108.193 384.633 134.178 380.872 135.865C375.766 138.183 362.835 146.213 357.333 150.011C357.031 151.304 357.27 154.73 357.958 155.671C367.336 153.974 385.29 147.113 389.041 143.626C397.596 135.668 406.098 111.059 406.098 111.059Z" fill="#C78E6E"/>
<path d="M398.532 367.266C398.004 367.307 397.477 367.165 397.042 366.862C396.908 366.742 396.808 366.589 396.751 366.418C396.695 366.248 396.684 366.065 396.719 365.889C396.726 365.779 396.762 365.673 396.825 365.582C396.887 365.491 396.973 365.419 397.074 365.372C397.949 364.927 400.398 366.469 400.679 366.645C400.71 366.664 400.734 366.692 400.747 366.726C400.76 366.759 400.762 366.796 400.752 366.831C400.743 366.867 400.725 366.9 400.699 366.928C400.674 366.955 400.642 366.975 400.606 366.986C399.927 367.152 399.232 367.246 398.532 367.266ZM397.49 365.651C397.411 365.634 397.33 365.634 397.251 365.651C397.211 365.672 397.178 365.703 397.155 365.741C397.133 365.78 397.123 365.824 397.126 365.869C397.098 365.989 397.103 366.115 397.139 366.233C397.176 366.351 397.243 366.457 397.334 366.541C397.74 366.904 398.762 366.945 400.106 366.686C399.305 366.163 398.404 365.81 397.459 365.651H397.49Z" fill="#FDBF21"/>
<path d="M400.555 366.986C400.528 366.995 400.499 366.995 400.472 366.986C399.69 366.552 398.221 364.844 398.44 363.975C398.473 363.837 398.551 363.714 398.663 363.626C398.774 363.538 398.912 363.489 399.055 363.489C399.195 363.47 399.337 363.482 399.472 363.523C399.607 363.564 399.731 363.633 399.836 363.727C400.701 364.461 400.753 366.717 400.753 366.831C400.758 366.865 400.752 366.9 400.735 366.93C400.718 366.96 400.691 366.983 400.659 366.997C400.624 367.004 400.588 367 400.555 366.986ZM399.159 363.83H399.086C398.846 363.83 398.815 363.965 398.805 364.016C398.68 364.523 399.607 365.817 400.378 366.428C400.375 365.553 400.102 364.701 399.597 363.985C399.476 363.881 399.319 363.825 399.159 363.83Z" fill="#FDBF21"/>
<path d="M370.868 365.972C370.23 366.193 369.536 366.193 368.899 365.972C368.754 365.894 368.631 365.781 368.542 365.644C368.453 365.507 368.4 365.349 368.388 365.186C368.375 365.083 368.388 364.979 368.426 364.884C368.465 364.788 368.527 364.703 368.607 364.637C369.44 363.892 372.848 364.637 373.233 364.782C373.27 364.792 373.302 364.813 373.325 364.843C373.348 364.873 373.36 364.91 373.358 364.948C373.36 364.987 373.35 365.025 373.33 365.058C373.309 365.091 373.279 365.118 373.244 365.134C372.477 365.478 371.682 365.758 370.868 365.972ZM369.17 364.741C369.05 364.765 368.939 364.818 368.847 364.896C368.813 364.921 368.788 364.954 368.773 364.993C368.758 365.031 368.755 365.073 368.763 365.113C368.77 365.222 368.804 365.327 368.862 365.419C368.921 365.512 369.001 365.588 369.097 365.641C369.649 365.931 370.931 365.703 372.587 365.01C371.471 364.73 370.316 364.639 369.17 364.741Z" fill="#FDBF21"/>
<path d="M373.213 365.134H373.13C372.088 364.948 370.004 363.758 369.941 362.868C369.941 362.661 370.035 362.371 370.535 362.205C370.704 362.146 370.883 362.12 371.062 362.131C371.242 362.142 371.417 362.188 371.577 362.268C372.702 362.816 373.296 364.803 373.328 364.896C373.335 364.927 373.334 364.96 373.325 364.991C373.316 365.022 373.299 365.05 373.276 365.072C373.26 365.097 373.239 365.119 373.213 365.134ZM370.743 362.516H370.639C370.316 362.63 370.316 362.764 370.316 362.806C370.316 363.344 371.827 364.327 372.88 364.658C372.637 363.827 372.124 363.099 371.421 362.588C371.212 362.483 370.971 362.457 370.743 362.516Z" fill="#FDBF21"/>
<path d="M358.218 149.4L347.349 154.368L346.089 157.472L350.1 160.152C350.1 160.152 357.603 159.345 359.739 154.554L358.218 149.4Z" fill="#C78E6E"/>
<path d="M358.676 155.847C358.433 153.774 357.743 151.776 356.654 149.99L358.374 148.707C359.667 150.765 360.492 153.078 360.791 155.485L358.676 155.847Z" fill="black"/>
<path d="M360.532 150.87C360.761 151.229 360.874 151.649 360.855 152.074C360.836 152.499 360.685 152.908 360.423 153.244C360.162 153.581 359.802 153.83 359.393 153.956C358.985 154.083 358.546 154.081 358.138 153.952C357.731 153.822 357.373 153.571 357.114 153.233C356.855 152.894 356.707 152.484 356.691 152.059C356.674 151.634 356.79 151.215 357.022 150.857C357.255 150.5 357.592 150.223 357.989 150.063C358.435 149.837 358.951 149.796 359.428 149.947C359.904 150.098 360.3 150.43 360.532 150.87Z" fill="black"/>
<path d="M340.004 158.383L341.453 159.832L351.206 155.692L347.35 154.368L340.004 158.383Z" fill="#C78E6E"/>
<path opacity="0.2" d="M381.882 347.531C381.944 347.531 383.361 351.484 383.361 351.484L368.94 357.507L366.668 353.306L381.882 347.531Z" fill="black"/>
<path opacity="0.2" d="M411.36 352.55C411.423 352.55 411.84 356.534 411.84 356.534H396.043L394.918 351.96L411.36 352.55Z" fill="black"/>
<path d="M408.923 108.079C411.788 117.258 400.587 129.811 400.587 129.811L385.113 123.539C386.947 118.234 389.062 113.028 391.448 107.944C396.2 97.7719 406.026 98.817 408.923 108.079Z" fill="#FDBF21"/>
<path opacity="0.2" d="M408.923 108.079C411.788 117.258 400.587 129.811 400.587 129.811L385.113 123.539C386.947 118.234 389.062 113.028 391.448 107.944C396.2 97.7719 406.026 98.817 408.923 108.079Z" fill="black"/>
<path d="M255.163 16.1125H248.505V17.1784H255.163V16.1125Z" fill="#FDBF21"/>
<path d="M341.356 58.2997L340.55 76.0603L341.622 76.1083L342.428 58.3477L341.356 58.2997Z" fill="#FDBF21"/>
<path d="M339.285 20.8933H216.329L204.888 275.175H327.844L339.285 20.8933Z" fill="#FDBF21"/>
<path opacity="0.56" d="M335.616 24.3911H212.66L201.219 278.673H324.175L335.616 24.3911Z" fill="#FAFAFA"/>
<path opacity="0.07" d="M331.949 27.8787H208.993L197.541 282.16H320.497L331.949 27.8787Z" fill="#FDBF21"/>
<path d="M317.955 138.783H213.005L212.13 158.238H317.08L317.955 138.783Z" fill="white"/>
<path d="M270.72 124.585H213.639L213.254 133.288H270.334L270.72 124.585Z" fill="#FDBF21"/>
<path d="M315.589 191.291H210.639L209.764 210.746H314.714L315.589 191.291Z" fill="white"/>
<path opacity="0.47" d="M296.343 237.021H225.768L224.716 260.336H295.291L296.343 237.021Z" fill="#FDBF21"/>
<path d="M291.623 263.958H221.049C221.018 263.965 220.986 263.965 220.955 263.958C220.945 263.927 220.945 263.895 220.955 263.864L221.997 240.539C221.997 240.523 222 240.507 222.007 240.493C222.013 240.478 222.022 240.465 222.034 240.455C222.046 240.444 222.06 240.436 222.075 240.431C222.09 240.426 222.106 240.424 222.122 240.425H292.697C292.71 240.419 292.724 240.416 292.738 240.416C292.753 240.416 292.767 240.419 292.78 240.425C292.787 240.438 292.791 240.452 292.791 240.467C292.791 240.481 292.787 240.495 292.78 240.508L291.759 263.885C291.746 263.909 291.727 263.929 291.703 263.942C291.678 263.955 291.651 263.961 291.623 263.958ZM221.174 263.709H291.498L292.54 240.632H222.216L221.174 263.709Z" fill="white"/>
<path d="M258.393 177.093H211.274L210.888 185.806H257.997L258.393 177.093Z" fill="#FDBF21"/>
<path d="M295 75.9366C294.73 81.5986 292.703 87.0391 289.196 91.511C286.6 94.8889 283.259 97.6311 279.429 99.5272C275.6 101.423 271.384 102.423 267.105 102.449C263.648 102.475 260.221 101.798 257.037 100.46C253.853 99.1208 250.978 97.1488 248.591 94.665C246.203 92.1812 244.352 89.2382 243.153 86.0173C241.954 82.7963 241.432 79.3657 241.618 75.9366C241.985 68.8211 245.074 62.1133 250.255 57.1851C255.437 52.2569 262.318 49.4806 269.492 49.4239C272.952 49.3919 276.382 50.0649 279.57 51.4013C282.758 52.7378 285.637 54.7093 288.027 57.194C290.418 59.6788 292.27 62.624 293.469 65.8477C294.669 69.0714 295.189 72.5051 295 75.9366Z" fill="white"/>
<path d="M297.51 54.9708C297.442 56.4763 296.903 57.9233 295.968 59.1102C295.276 60.0073 294.387 60.7357 293.368 61.2397C292.35 61.7436 291.229 62.0099 290.091 62.0181C288.988 62.0247 287.901 61.7632 286.924 61.2563C285.947 60.7494 285.109 60.0126 284.485 59.1102C283.658 57.8908 283.249 56.4393 283.318 54.9708C283.419 53.0816 284.241 51.3017 285.618 49.9941C286.994 48.6865 288.822 47.9497 290.726 47.9339C291.645 47.9255 292.556 48.1042 293.403 48.4588C294.25 48.8134 295.015 49.3364 295.65 49.9957C296.286 50.655 296.779 51.4365 297.098 52.2921C297.418 53.1478 297.558 54.0594 297.51 54.9708Z" fill="#FDBF21"/>
<path d="M224.31 148.51C224.26 149.344 223.893 150.128 223.284 150.704C222.675 151.28 221.869 151.606 221.028 151.615C220.622 151.619 220.219 151.542 219.844 151.386C219.47 151.23 219.131 150.999 218.85 150.708C218.569 150.417 218.351 150.072 218.209 149.694C218.067 149.316 218.005 148.913 218.027 148.51C218.072 147.675 218.437 146.888 219.047 146.311C219.657 145.733 220.466 145.41 221.309 145.406C221.715 145.402 222.117 145.481 222.491 145.638C222.865 145.794 223.202 146.025 223.483 146.316C223.764 146.606 223.983 146.951 224.125 147.328C224.267 147.705 224.33 148.108 224.31 148.51Z" fill="black"/>
<path d="M238.356 148.51C238.309 149.345 237.943 150.13 237.333 150.707C236.724 151.284 235.916 151.608 235.074 151.615C234.669 151.618 234.267 151.539 233.894 151.383C233.521 151.226 233.184 150.995 232.903 150.704C232.623 150.414 232.406 150.069 232.265 149.692C232.124 149.314 232.062 148.912 232.084 148.51C232.129 147.676 232.492 146.891 233.1 146.314C233.708 145.737 234.515 145.412 235.356 145.406C235.762 145.401 236.164 145.479 236.539 145.635C236.914 145.791 237.252 146.021 237.533 146.312C237.814 146.603 238.033 146.948 238.174 147.327C238.316 147.705 238.378 148.107 238.356 148.51Z" fill="black"/>
<path d="M252.413 148.51C252.365 149.345 251.999 150.13 251.39 150.707C250.78 151.284 249.972 151.608 249.13 151.615C248.725 151.618 248.323 151.539 247.949 151.383C247.575 151.226 247.237 150.996 246.956 150.705C246.675 150.414 246.457 150.07 246.315 149.692C246.173 149.315 246.109 148.913 246.129 148.51C246.177 147.676 246.543 146.89 247.152 146.313C247.762 145.737 248.57 145.412 249.412 145.406C249.818 145.401 250.221 145.479 250.595 145.635C250.97 145.791 251.308 146.021 251.589 146.312C251.871 146.603 252.089 146.948 252.23 147.327C252.372 147.705 252.434 148.107 252.413 148.51Z" fill="black"/>
<path d="M221.944 201.018C221.894 201.852 221.527 202.636 220.918 203.212C220.309 203.789 219.503 204.114 218.662 204.123C218.256 204.126 217.854 204.047 217.48 203.891C217.106 203.734 216.768 203.504 216.487 203.213C216.206 202.922 215.988 202.578 215.846 202.2C215.704 201.823 215.641 201.421 215.661 201.018C215.708 200.184 216.074 199.398 216.684 198.822C217.293 198.245 218.101 197.92 218.943 197.914C219.349 197.911 219.751 197.99 220.125 198.146C220.498 198.303 220.836 198.533 221.117 198.824C221.398 199.114 221.616 199.459 221.759 199.836C221.901 200.214 221.964 200.616 221.944 201.018Z" fill="black"/>
<path d="M235.991 201.018C235.943 201.851 235.579 202.635 234.972 203.212C234.364 203.788 233.559 204.114 232.719 204.123C232.313 204.128 231.91 204.05 231.535 203.894C231.161 203.738 230.823 203.507 230.541 203.216C230.26 202.925 230.042 202.58 229.9 202.202C229.759 201.824 229.697 201.421 229.718 201.018C229.766 200.184 230.131 199.398 230.741 198.822C231.351 198.245 232.158 197.92 233 197.914C233.406 197.911 233.807 197.99 234.181 198.146C234.554 198.303 234.891 198.534 235.171 198.824C235.451 199.115 235.669 199.46 235.809 199.837C235.95 200.215 236.012 200.617 235.991 201.018Z" fill="black"/>
<path d="M250.078 201.018C250.031 201.853 249.665 202.638 249.055 203.215C248.445 203.792 247.638 204.116 246.796 204.123C246.391 204.124 245.989 204.044 245.616 203.887C245.243 203.73 244.906 203.5 244.625 203.209C244.344 202.919 244.126 202.575 243.983 202.198C243.841 201.822 243.777 201.42 243.795 201.018C243.845 200.184 244.211 199.4 244.821 198.824C245.43 198.248 246.236 197.923 247.077 197.914C247.483 197.909 247.886 197.987 248.261 198.143C248.635 198.299 248.974 198.529 249.255 198.82C249.536 199.111 249.754 199.456 249.896 199.834C250.038 200.212 250.1 200.615 250.078 201.018Z" fill="black"/>
<path d="M264.103 201.018C264.053 201.852 263.687 202.636 263.078 203.212C262.468 203.789 261.662 204.114 260.821 204.123C260.416 204.125 260.014 204.045 259.641 203.888C259.268 203.731 258.931 203.5 258.65 203.21C258.37 202.919 258.151 202.576 258.009 202.199C257.866 201.822 257.802 201.421 257.82 201.018C257.87 200.185 258.237 199.401 258.846 198.824C259.455 198.248 260.261 197.923 261.102 197.914C261.508 197.911 261.91 197.99 262.284 198.146C262.658 198.303 262.996 198.533 263.277 198.824C263.558 199.114 263.776 199.459 263.918 199.836C264.06 200.214 264.123 200.616 264.103 201.018Z" fill="black"/>
<path d="M278.212 201.018C278.162 201.852 277.796 202.636 277.187 203.212C276.578 203.789 275.771 204.114 274.93 204.123C274.524 204.128 274.121 204.05 273.747 203.894C273.372 203.738 273.034 203.507 272.752 203.216C272.471 202.925 272.253 202.58 272.111 202.202C271.97 201.824 271.908 201.421 271.929 201.018C271.977 200.184 272.343 199.398 272.952 198.822C273.562 198.245 274.37 197.92 275.211 197.914C275.617 197.911 276.019 197.99 276.393 198.146C276.767 198.303 277.105 198.533 277.386 198.824C277.667 199.114 277.885 199.459 278.027 199.836C278.169 200.214 278.232 200.616 278.212 201.018Z" fill="black"/>
<path d="M276.08 74.5563C280.441 70.3206 280.673 63.5313 276.597 59.392C272.521 55.2527 265.681 55.3308 261.32 59.5665C256.959 63.8022 256.727 70.5914 260.803 74.7307C264.879 78.8701 271.719 78.792 276.08 74.5563Z" fill="#FDBF21"/>
<path d="M289.195 91.5109C286.599 94.8888 283.258 97.631 279.428 99.5272C275.599 101.423 271.383 102.423 267.104 102.449C262.955 102.484 258.861 101.505 255.183 99.5971C251.505 97.6896 248.356 94.9125 246.014 91.5109C251.078 86.5023 259.091 83.2322 267.969 83.2322C276.847 83.2322 284.579 86.5023 289.195 91.5109Z" fill="#FDBF21"/>
<path opacity="0.1" d="M276.08 74.5563C280.441 70.3206 280.673 63.5313 276.597 59.392C272.521 55.2527 265.681 55.3308 261.32 59.5665C256.959 63.8022 256.727 70.5914 260.803 74.7307C264.879 78.8701 271.719 78.792 276.08 74.5563Z" fill="white"/>
<path opacity="0.1" d="M289.195 91.5109C286.599 94.8888 283.258 97.631 279.428 99.5272C275.599 101.423 271.383 102.423 267.104 102.449C262.955 102.484 258.861 101.505 255.183 99.5971C251.505 97.6896 248.356 94.9125 246.014 91.5109C251.078 86.5023 259.091 83.2322 267.969 83.2322C276.847 83.2322 284.579 86.5023 289.195 91.5109Z" fill="white"/>
<path d="M135.886 162.926C134.896 165.078 133.854 167.448 132.947 169.745C132.041 172.043 131.113 174.413 130.311 176.772C128.673 181.422 127.425 186.198 126.581 191.053L126.351 192.574C126.33 192.835 126.354 193.098 126.424 193.35C126.67 194.208 127.058 195.019 127.571 195.751C128.909 197.646 130.461 199.382 132.197 200.925C134.027 202.616 135.947 204.208 137.949 205.696C139.95 207.227 142.054 208.718 144.128 210.125L142.179 213.757C137.228 211.615 132.528 208.939 128.165 205.779C125.836 204.092 123.735 202.117 121.913 199.901C120.832 198.581 119.99 197.086 119.422 195.482C119.092 194.48 118.923 193.432 118.922 192.377C118.922 192.129 118.922 191.767 118.922 191.591V191.084L119.026 190.049C119.624 184.657 120.765 179.339 122.434 174.175C123.246 171.629 124.111 169.093 125.101 166.62C126.091 164.147 127.112 161.725 128.373 159.211L135.886 162.926Z" fill="#C78E6E"/>
<path d="M142.66 209.484L150.027 205.779L148.12 213.809C148.12 213.809 143.067 215.217 140.722 212.774L142.66 209.484Z" fill="#C78E6E"/>
<path d="M156.769 207.093L154.81 213.737L148.121 213.809L150.027 205.779L156.769 207.093Z" fill="#C78E6E"/>
<path d="M167.168 124.181C167.562 125.616 168.11 127.003 168.804 128.321C168.601 128.549 168.34 128.718 168.048 128.811C167.757 128.904 167.445 128.917 167.147 128.849L167.168 124.181Z" fill="#DF5753"/>
<path d="M166.949 124.243C167.38 124.243 167.73 123.71 167.73 123.053C167.73 122.396 167.38 121.863 166.949 121.863C166.517 121.863 166.167 122.396 166.167 123.053C166.167 123.71 166.517 124.243 166.949 124.243Z" fill="black"/>
<path d="M166.719 121.905L168.303 121.46C168.303 121.46 167.532 122.681 166.719 121.905Z" fill="black"/>
<path d="M146.817 131.777C147.765 136.589 148.713 145.416 145.316 148.634C145.316 148.634 146.65 153.519 155.664 153.519C165.573 153.519 160.394 148.634 160.394 148.634C154.986 147.351 155.122 143.367 156.07 139.621L146.817 131.777Z" fill="#C78E6E"/>
<path d="M144.181 120.808C144.681 128.849 144.723 132.264 148.807 136.393C154.966 142.602 164.802 140.242 166.73 132.253C168.47 125.009 167.365 113.088 159.436 109.89C157.695 109.178 155.8 108.919 153.931 109.137C152.061 109.355 150.278 110.043 148.751 111.136C147.224 112.229 146.003 113.691 145.203 115.383C144.403 117.076 144.051 118.943 144.181 120.808Z" fill="#C78E6E"/>
<path d="M144.984 111.763C140.92 113.233 135.502 112.136 137.628 124.585C139.878 137.769 136.419 142.105 136.419 142.105C136.419 142.105 151.83 145.365 167.564 141.908C167.564 141.908 162.761 133.567 164.105 127.42C165.824 119.659 164.469 116.793 164.469 116.793C164.469 116.793 150.694 109.694 144.984 111.763Z" fill="black"/>
<path d="M162.176 124.999C162.18 126.528 162.621 128.024 163.447 129.314C164.552 130.991 165.854 130.349 166.177 128.569C166.469 127.006 166.25 124.243 164.843 123.167C163.437 122.091 162.197 123.146 162.176 124.999Z" fill="#C78E6E"/>
<path d="M141.451 113.119C140.284 109.859 145.849 104.84 157.623 106.91C169.398 108.979 169.908 118.717 169.908 118.717L167.533 115.902L167.637 118.862L155.539 121.17L141.451 113.119Z" fill="black"/>
<path d="M142.452 149.183C142.382 148.71 142.501 148.23 142.784 147.843C143.066 147.456 143.489 147.194 143.963 147.113C147.631 146.513 155.967 145.292 160.155 145.871C163.281 146.306 164.094 148.107 164.23 149.586C164.251 149.846 164.216 150.106 164.127 150.351C164.039 150.595 163.898 150.818 163.716 151.005C163.533 151.191 163.312 151.336 163.069 151.431C162.825 151.525 162.563 151.567 162.302 151.553L144.192 150.745C143.765 150.724 143.359 150.557 143.042 150.272C142.724 149.987 142.516 149.603 142.452 149.183Z" fill="#FDBF21"/>
<path opacity="0.6" d="M142.452 149.183C142.382 148.71 142.501 148.23 142.784 147.843C143.066 147.456 143.489 147.194 143.963 147.113C147.631 146.513 155.967 145.292 160.155 145.871C163.281 146.306 164.094 148.107 164.23 149.586C164.251 149.846 164.216 150.106 164.127 150.351C164.039 150.595 163.898 150.818 163.716 151.005C163.533 151.191 163.312 151.336 163.069 151.431C162.825 151.525 162.563 151.567 162.302 151.553L144.192 150.745C143.765 150.724 143.359 150.557 143.042 150.272C142.724 149.987 142.516 149.603 142.452 149.183Z" fill="black"/>
<path d="M152.923 329.97L159.644 334.606L170.887 319.467L164.166 314.841L152.923 329.97Z" fill="#C78E6E"/>
<path d="M137.252 329.67L144.348 333.685L154.299 317.676L147.203 313.661L137.252 329.67Z" fill="#C78E6E"/>
<path d="M170.877 319.467L165.083 327.269L158.362 322.644L164.156 314.841L170.877 319.467Z" fill="#CF6F64"/>
<path d="M147.191 313.661L154.298 317.687L149.171 325.934L142.065 321.909L147.191 313.661Z" fill="#CF6F64"/>
<path d="M158.591 199.725C158.591 199.725 184.829 232.56 179.9 263.968C175.93 289.332 152.902 323.678 152.902 323.678L142.075 318.338C149.706 303.152 156.219 287.437 161.561 271.315C163.208 266.31 163.689 260.998 162.967 255.782C162.245 250.565 160.339 245.579 157.393 241.201C144.097 221.922 122.798 233.398 137.126 199.725H158.591Z" fill="#FDBF21"/>
<path opacity="0.6" d="M158.591 199.725C158.591 199.725 184.829 232.56 179.9 263.968C175.93 289.332 152.902 323.678 152.902 323.678L142.075 318.338C149.706 303.152 156.219 287.437 161.561 271.315C163.208 266.31 163.689 260.998 162.967 255.782C162.245 250.565 160.339 245.579 157.393 241.201C144.097 221.922 122.798 233.398 137.126 199.725H158.591Z" fill="black"/>
<path opacity="0.4" d="M171.461 220.815L167.647 217.048C167.647 217.348 175.035 262.643 177.108 275.372C178.332 271.654 179.269 267.848 179.911 263.989C182.35 248.58 177.254 232.84 171.461 220.815Z" fill="black"/>
<path d="M170.305 199.725C170.305 199.725 201.898 240.994 202.794 265.737C203.534 286.434 168.408 326.534 168.408 326.534L158.197 319.973C158.197 319.973 178.755 291.495 183.934 268.231C181.934 245.175 139.628 199.725 139.628 199.725H170.305Z" fill="#FDBF21"/>
<path opacity="0.6" d="M170.305 199.725C170.305 199.725 201.898 240.994 202.794 265.737C203.534 286.434 168.408 326.534 168.408 326.534L158.197 319.973C158.197 319.973 178.755 291.495 183.934 268.231C181.934 245.175 139.628 199.725 139.628 199.725H170.305Z" fill="black"/>
<path d="M131.218 150.477C127.842 151.273 124.601 163.464 124.601 163.464L137.803 172.219C137.803 172.219 142.201 162.574 140.658 158.352C139.064 153.954 135.459 149.473 131.218 150.477Z" fill="#FDBF21"/>
<path opacity="0.2" d="M133.802 158.331L132.885 168.959L137.793 172.229C139.148 169.199 140.152 166.026 140.784 162.77L133.802 158.331Z" fill="black"/>
<path d="M174.212 150.715C174.212 150.715 178.109 152.07 170.304 199.714H137.106C137.669 186.261 137.679 177.983 131.219 150.477C135.867 149.525 140.579 148.91 145.317 148.635C150.337 148.277 155.376 148.277 160.395 148.635C166.876 149.224 174.212 150.715 174.212 150.715Z" fill="#FDBF21"/>
<path d="M177.587 158.331C178.337 160.401 179.129 162.626 179.963 164.768C180.797 166.91 181.588 169.114 182.432 171.287L184.985 177.786L185.631 179.411L185.965 180.218L186.121 180.622C186.121 180.694 186.121 180.694 186.121 180.684C185.931 180.417 185.681 180.198 185.392 180.042C184.979 179.801 184.515 179.663 184.037 179.638C183.64 179.626 183.245 179.7 182.88 179.856C182.401 180.073 182.401 180.166 182.412 180.156C182.498 180.087 182.575 180.007 182.641 179.918C183.218 179.166 183.717 178.358 184.131 177.507C184.621 176.555 185.09 175.541 185.558 174.516C186.475 172.446 187.319 170.304 188.163 168.141C189.007 165.979 189.81 163.795 190.591 161.591L192.967 154.989L196.979 156.023C196.187 160.742 195.166 165.337 193.936 170.014C193.342 172.343 192.644 174.651 191.852 176.979C191.456 178.148 191.019 179.307 190.518 180.497C189.997 181.789 189.355 183.029 188.601 184.202C188.324 184.597 188.017 184.97 187.684 185.32C187.152 185.891 186.506 186.345 185.788 186.655C185.15 186.927 184.46 187.054 183.766 187.027C182.99 186.999 182.233 186.774 181.568 186.375C180.783 185.889 180.131 185.217 179.671 184.419C179.515 184.15 179.379 183.881 179.286 183.685L179.088 183.291L178.692 182.484L177.9 180.88C176.858 178.728 175.816 176.555 174.909 174.371C174.003 172.188 173.044 169.973 172.148 167.748C171.252 165.523 170.449 163.298 169.689 160.897L177.587 158.331Z" fill="#C78E6E"/>
<path d="M174.211 150.715C178.202 151.656 182.693 163.371 182.693 163.371L170.825 173.398C170.825 173.398 163.145 160.628 164.698 156.417C166.313 152.029 169.001 149.483 174.211 150.715Z" fill="#FDBF21"/>
<path d="M194.853 151.284L199.021 147.827L201.918 152.308L199.782 156.044C199.782 156.044 196.385 159.149 193.384 157.565C192.908 156.502 192.793 155.314 193.059 154.18C193.324 153.046 193.954 152.03 194.853 151.284Z" fill="#C78E6E"/>
<path d="M206.544 147.838L206.232 148.966L199.636 150.063L198.99 147.827L206.544 147.838Z" fill="#C78E6E"/>
<path d="M169.221 327.062L157.321 319.425L159.457 315.741L172.826 323.906L169.221 327.062Z" fill="#FDBF21"/>
<path d="M149.005 333.147C147.961 333.021 146.957 332.667 146.066 332.112C146.029 332.1 145.998 332.076 145.975 332.044C145.952 332.013 145.94 331.975 145.94 331.937C145.94 331.898 145.952 331.86 145.975 331.829C145.998 331.797 146.029 331.773 146.066 331.761C146.389 331.657 149.192 330.798 150.005 331.461C150.096 331.536 150.166 331.634 150.206 331.745C150.246 331.856 150.256 331.976 150.234 332.092C150.22 332.278 150.158 332.458 150.054 332.613C149.95 332.769 149.807 332.896 149.64 332.982C149.445 333.088 149.227 333.144 149.005 333.147ZM146.66 332.009C147.963 332.671 149.005 332.909 149.505 332.661C149.614 332.601 149.705 332.514 149.771 332.409C149.837 332.304 149.874 332.184 149.88 332.061C149.88 331.895 149.88 331.823 149.786 331.781C149.349 331.429 147.786 331.699 146.639 332.009H146.66Z" fill="black"/>
<path d="M146.14 332.185C146.085 332.184 146.033 332.161 145.994 332.122C145.979 332.094 145.97 332.062 145.97 332.029C145.97 331.997 145.979 331.965 145.994 331.936C145.994 331.843 146.671 329.597 147.734 329.09C147.87 329.029 148.017 328.997 148.167 328.997C148.316 328.997 148.463 329.029 148.599 329.09C148.745 329.136 148.872 329.229 148.959 329.355C149.046 329.481 149.088 329.632 149.078 329.784C149.005 330.715 147.099 331.998 146.223 332.216L146.14 332.185ZM148.161 329.359C148.06 329.363 147.961 329.387 147.87 329.432C147.224 329.742 146.692 330.953 146.432 331.688C147.349 331.305 148.609 330.291 148.651 329.722C148.651 329.628 148.651 329.515 148.411 329.411C148.333 329.37 148.249 329.342 148.161 329.328V329.359Z" fill="black"/>
<path d="M163.874 337.618C162.697 337.618 161.061 336.117 160.165 335.196C160.142 335.164 160.13 335.126 160.13 335.087C160.13 335.048 160.142 335.01 160.165 334.979C160.185 334.945 160.215 334.918 160.25 334.9C160.284 334.882 160.324 334.873 160.363 334.875C160.78 334.875 164.395 335.413 164.906 336.428C164.96 336.518 164.989 336.622 164.989 336.728C164.989 336.833 164.96 336.937 164.906 337.028C164.829 337.186 164.714 337.322 164.57 337.423C164.426 337.524 164.258 337.588 164.083 337.607L163.874 337.618ZM160.853 335.341C162.166 336.603 163.322 337.307 163.979 337.224C164.094 337.209 164.203 337.167 164.298 337.1C164.392 337.033 164.469 336.944 164.52 336.841C164.544 336.806 164.556 336.765 164.556 336.722C164.556 336.68 164.544 336.639 164.52 336.603C164.25 336.045 162.322 335.569 160.853 335.341Z" fill="black"/>
<path d="M160.967 335.289C160.733 335.296 160.499 335.279 160.269 335.238C160.237 335.233 160.207 335.22 160.181 335.2C160.155 335.18 160.135 335.154 160.123 335.124C160.108 335.093 160.099 335.06 160.099 335.026C160.099 334.991 160.108 334.958 160.123 334.927C160.186 334.855 161.592 333.168 162.926 333.054C163.304 333.025 163.678 333.144 163.968 333.385C164.375 333.737 164.354 334.048 164.249 334.244C163.989 334.948 162.186 335.289 160.967 335.289ZM160.696 334.907C161.863 334.969 163.728 334.586 163.968 334.079C163.968 334.079 164.051 333.913 163.781 333.685C163.673 333.592 163.547 333.522 163.411 333.479C163.274 333.437 163.131 333.422 162.989 333.437C162.09 333.686 161.29 334.203 160.696 334.917V334.907Z" fill="black"/>
<path d="M146.421 331.067L137.585 328.583C137.433 328.538 137.269 328.549 137.125 328.616C136.98 328.683 136.866 328.8 136.804 328.946L133.823 335.6C133.753 335.77 133.721 335.953 133.727 336.137C133.733 336.321 133.779 336.502 133.861 336.667C133.942 336.832 134.058 336.978 134.201 337.096C134.344 337.213 134.51 337.299 134.688 337.349C137.814 338.156 139.315 338.383 143.201 339.491C145.598 340.153 149.016 341.384 152.319 342.316C155.622 343.247 156.727 340.05 155.445 339.367C149.651 336.324 149.193 334.192 147.609 331.916C147.325 331.503 146.905 331.203 146.421 331.067Z" fill="#FDBF21"/>
<path d="M160.405 333.985L152.861 328.811C152.733 328.718 152.575 328.676 152.418 328.691C152.26 328.706 152.114 328.778 152.006 328.894L147.005 334.234C146.883 334.372 146.792 334.534 146.738 334.709C146.684 334.885 146.669 335.07 146.692 335.252C146.716 335.434 146.778 335.609 146.875 335.765C146.972 335.922 147.102 336.056 147.255 336.158C149.912 337.928 151.287 338.642 154.611 340.929C156.695 342.336 160.728 345.462 163.541 347.407C166.355 349.353 168.449 346.683 167.449 345.627C162.968 340.877 161.989 337.897 161.249 335.196C161.121 334.706 160.822 334.277 160.405 333.985Z" fill="#FDBF21"/>
<path d="M154.289 324.361L140.691 317.645L142.097 313.982L156.623 321.06L154.289 324.361Z" fill="#FDBF21"/>
<path d="M136.606 197.779L135.46 200.76C135.345 200.987 135.616 201.225 136.002 201.225H170.471C170.773 201.225 171.023 201.081 171.044 200.894L171.336 197.935C171.336 197.738 171.096 197.562 170.773 197.562H137.148C137.047 197.553 136.945 197.567 136.85 197.605C136.756 197.643 136.672 197.703 136.606 197.779Z" fill="#FDBF21"/>
<path opacity="0.4" d="M136.606 197.779L135.46 200.76C135.345 200.987 135.616 201.225 136.002 201.225H170.471C170.773 201.225 171.023 201.081 171.044 200.894L171.336 197.935C171.336 197.738 171.096 197.562 170.773 197.562H137.148C137.047 197.553 136.945 197.567 136.85 197.605C136.756 197.643 136.672 197.703 136.606 197.779Z" fill="white"/>
<path d="M142.034 201.515H141.127C140.95 201.515 140.815 201.422 140.825 201.308L141.252 197.469C141.252 197.366 141.419 197.272 141.596 197.272H142.503C142.68 197.272 142.815 197.366 142.805 197.469L142.378 201.308C142.367 201.422 142.211 201.515 142.034 201.515Z" fill="#FDBF21"/>
<path d="M163.29 201.515H162.394C162.217 201.515 162.082 201.422 162.092 201.308L162.509 197.469C162.509 197.366 162.686 197.272 162.863 197.272H163.759C163.936 197.272 164.082 197.366 164.061 197.469L163.645 201.308C163.593 201.422 163.478 201.515 163.29 201.515Z" fill="#FDBF21"/>
<g style="mix-blend-mode:multiply">
<path d="M141.242 376.766C156.659 376.766 169.158 375.867 169.158 374.758C169.158 373.649 156.659 372.75 141.242 372.75C125.825 372.75 113.327 373.649 113.327 374.758C113.327 375.867 125.825 376.766 141.242 376.766Z" fill="#F5F5F5"/>
</g>
<path d="M158.247 371.923C153.308 370.495 147.827 368.663 144.514 366.749C144.42 366.687 144.316 366.656 144.222 366.604V344.396H154.215C154.973 344.351 155.686 344.021 156.207 343.472C156.729 342.922 157.019 342.196 157.019 341.442C157.019 340.687 156.729 339.961 156.207 339.412C155.686 338.862 154.973 338.532 154.215 338.487H144.274V237.259H138.272V338.487H128.342C127.936 338.463 127.53 338.522 127.149 338.66C126.767 338.797 126.417 339.011 126.122 339.288C125.826 339.565 125.591 339.898 125.43 340.269C125.269 340.639 125.186 341.038 125.186 341.442C125.186 341.845 125.269 342.244 125.43 342.615C125.591 342.985 125.826 343.319 126.122 343.595C126.417 343.872 126.767 344.086 127.149 344.224C127.53 344.361 127.936 344.42 128.342 344.396H138.272V366.573C138.178 366.573 138.085 366.656 137.991 366.718C134.625 368.663 129.186 370.495 124.247 371.892C123.913 371.992 123.627 372.208 123.439 372.499C123.252 372.791 123.176 373.14 123.225 373.483C123.274 373.826 123.445 374.139 123.707 374.368C123.969 374.596 124.305 374.724 124.653 374.727H157.841C158.174 374.705 158.489 374.57 158.734 374.344C158.979 374.119 159.138 373.816 159.186 373.488C159.233 373.16 159.166 372.826 158.995 372.541C158.825 372.256 158.561 372.038 158.247 371.923Z" fill="#E0E0E0"/>
<path d="M159.779 226.952H122.725C119.744 226.952 117.328 229.352 117.328 232.312V243.25C117.328 246.211 119.744 248.611 122.725 248.611H159.779C162.76 248.611 165.176 246.211 165.176 243.25V232.312C165.176 229.352 162.76 226.952 159.779 226.952Z" fill="#FDBF21"/>
<path d="M122.382 248.621V250.505C122.382 252.057 124.08 253.319 126.164 253.319H156.382C158.466 253.319 160.165 252.057 160.165 250.505V248.621H122.382Z" fill="#FDBF21"/>
<path opacity="0.3" d="M122.382 248.621V250.505C122.382 252.057 124.08 253.319 126.164 253.319H156.382C158.466 253.319 160.165 252.057 160.165 250.505V248.621H122.382Z" fill="white"/>
</svg>
